<svg xmlns="http://www.w3.org/2000/svg" viewBox="0 0 48 48" fill="none">
  <path d="M9.4 12.2c8.4-.9 21.1-.7 29.3.1.7 7.4.6 16.2-.1 23.8-8.1.7-20.7.6-29.2-.1-.8-7.6-.8-16.2 0-23.8Z" fill="#fffdfa" stroke="#1d1d1b" stroke-width="3" stroke-linejoin="round"/>
  <path d="M13.8 17.2c3.7-.3 7.5-.3 11.4.1M13.7 22.8c3.6-.3 7.6-.3 11.7.1M13.8 28.4c3.2-.2 6.7-.2 10.1.1" stroke="#1d1d1b" stroke-width="2.3" stroke-linecap="round"/>
  <path d="M29.6 17.5c1.7-.2 3.8-.2 5.4.1.2 2.9.1 5.9-.2 8.7-1.5.2-3.6.2-5.2 0-.3-2.7-.3-5.9 0-8.8Z" fill="#fff4b8" stroke="#1d1d1b" stroke-width="2.2" stroke-linejoin="round"/>
  <path d="M29.4 31.5c1.8-.2 4.2-.2 6.1.1" stroke="#1d1d1b" stroke-width="2.3" stroke-linecap="round"/>
</svg>
