<svg xmlns="http://www.w3.org/2000/svg" viewBox="0 0 48 48" fill="none">
  <path d="M10 11.5c8.7-.6 19.4-.6 28.1 0 .6 8.7.6 18.8-.1 27-8.9.7-19 .6-28-.1-.7-8.3-.6-18.5 0-26.9Z" fill="#fffdfa" stroke="#1d1d1b" stroke-width="3" stroke-linejoin="round"/>
  <path d="M19.4 11.6c-.3 7.2-.4 18.5-.1 26.8M28.6 11.3c.4 8 .4 17.9 0 27.1M10.3 20.4c7.1-.4 19.5-.5 27.7-.1M10.2 29.1c8.1.4 18.6.4 27.8-.1" stroke="#1d1d1b" stroke-width="2.2" stroke-linecap="round"/>
  <path d="M14.2 15.6c.6-.3 1.2-.3 1.8 0M23.2 24.8c.7-.2 1.4-.2 2.1.1M31.8 33.5c.8-.2 1.4-.2 2 .1" stroke="#1d1d1b" stroke-width="2" stroke-linecap="round"/>
</svg>
