<svg xmlns="http://www.w3.org/2000/svg" viewBox="0 0 48 48" fill="none">
  <path d="M13.1 8.8c6.4-.6 14.2-.4 21.3.2.5 9.1.4 19.9-.2 30.1-6.7.5-14.2.3-20.9-.2-.7-9.8-.7-20.6-.2-30.1Z" fill="#fffdfa" stroke="#1d1d1b" stroke-width="3.1" stroke-linejoin="round"/>
  <path d="M18.2 16.4c3.5-.4 8-.4 11.7 0M18.1 22.4c4.3-.2 8.3-.1 12 .1M18.2 28.5c2.7-.2 5.9-.2 8.9.1" stroke="#1d1d1b" stroke-width="2.4" stroke-linecap="round"/>
  <path d="M30.5 8.7c.3 3.1.1 6.2-.3 9.3 2.2.1 4.1.1 5.9-.2" fill="#fff4b8" stroke="#1d1d1b" stroke-width="2.5" stroke-linejoin="round"/>
</svg>
