<svg xmlns="http://www.w3.org/2000/svg" viewBox="0 0 48 48" fill="none">
  <path d="M24.2 9.5c8.4.3 14.6 6.7 14.3 14.7-.3 8.5-6.9 14.8-14.9 14.4-8.2-.4-14-6.8-14.1-14.6-.1-8.3 6.5-14.8 14.7-14.5Z" fill="#fffdfa" stroke="#1d1d1b" stroke-width="3.2" stroke-linejoin="round"/>
  <path d="M19.2 22.4c-.1-3.3 1.8-5.7 5-5.8 3.1-.1 5 1.8 5.1 4.5.1 2.2-1 3.4-2.6 4.6-1.5 1.1-2.1 2-2 3.9" stroke="#1d1d1b" stroke-width="3" stroke-linecap="round" stroke-linejoin="round"/>
  <path d="M24.7 34.1h.1" stroke="#1d1d1b" stroke-width="4" stroke-linecap="round"/>
  <path d="M13 25.1c3.3-1.2 6.4-1.6 9.3-1.2M28.2 24c2.6-.1 5.1.3 7.3 1.2" stroke="#1d1d1b" stroke-width="1.9" stroke-linecap="round" opacity=".45"/>
</svg>
