<svg xmlns="http://www.w3.org/2000/svg" viewBox="0 0 48 48" fill="none">
  <path d="M8.8 11.7c7.8-.7 17.1-.6 24.4.1.6 5.7.5 12.2-.2 17.7-5.7.6-12.2.7-18.1.3l-5.7 4.8 1.4-6.8c-1.8-4.7-2.2-10.8-1.8-16.1Z" fill="#fffdfa" stroke="#1d1d1b" stroke-width="3" stroke-linejoin="round"/>
  <path d="M27.2 20.7c4.2 0 8.6.2 12 .7.4 4 .2 8.4-.4 12.1l1.1 4.8-4.4-3.5c-3.3.2-6.7.1-9.8-.3" fill="#fff4b8" stroke="#1d1d1b" stroke-width="2.7" stroke-linecap="round" stroke-linejoin="round"/>
  <path d="M15.1 20.6h.1M21 20.6h.1M26.9 20.6h.1" stroke="#1d1d1b" stroke-width="3.4" stroke-linecap="round"/>
</svg>
